<svg xmlns="http://www.w3.org/2000/svg" xmlns:xlink="http://www.w3.org/1999/xlink" width="300" zoomAndPan="magnify" viewBox="0 0 224.87999 74.999997" height="100" preserveAspectRatio="xMidYMid meet" version="1.0"><defs><g/><clipPath id="c7b02ced06"><path d="M 1 5 L 20 5 L 20 52 L 1 52 Z M 1 5 " clip-rule="nonzero"/></clipPath><clipPath id="5f3805b2c4"><path d="M -27.335938 38.160156 L 28.472656 -6.550781 L 83.074219 61.597656 L 27.269531 106.3125 Z M -27.335938 38.160156 " clip-rule="nonzero"/></clipPath><clipPath id="47483ebf46"><path d="M -27.335938 38.160156 L 28.472656 -6.550781 L 83.074219 61.597656 L 27.269531 106.3125 Z M -27.335938 38.160156 " clip-rule="nonzero"/></clipPath><clipPath id="98fc031e55"><path d="M 13.171875 5.75 C 20.671875 10.90625 5.988281 38.289062 1.1875 47.792969 L 1.898438 48.585938 C 3.132812 49.96875 4.683594 50.832031 6.484375 51.316406 C 21.53125 23.125 23.585938 10.757812 13.171875 5.75 Z M 13.171875 5.75 " clip-rule="nonzero"/></clipPath><linearGradient x1="44.949024" gradientTransform="matrix(0.0632469, -0.0506747, 0.0506747, 0.0632469, -19.204751, 31.691925)" y1="193.59" x2="612.200781" gradientUnits="userSpaceOnUse" y2="193.59" id="612e655121"><stop stop-opacity="1" stop-color="rgb(79.998779%, 79.998779%, 79.998779%)" offset="0"/><stop stop-opacity="1" stop-color="rgb(79.998779%, 79.998779%, 79.998779%)" offset="0.03125"/><stop stop-opacity="1" stop-color="rgb(79.998779%, 79.998779%, 79.998779%)" offset="0.046875"/><stop stop-opacity="1" stop-color="rgb(79.830933%, 79.830933%, 79.830933%)" offset="0.0546875"/><stop stop-opacity="1" stop-color="rgb(79.467773%, 79.467773%, 79.467773%)" offset="0.0625"/><stop stop-opacity="1" stop-color="rgb(79.078674%, 79.078674%, 79.078674%)" offset="0.0703125"/><stop stop-opacity="1" stop-color="rgb(78.689575%, 78.689575%, 78.689575%)" offset="0.078125"/><stop stop-opacity="1" stop-color="rgb(78.300476%, 78.300476%, 78.300476%)" offset="0.0859375"/><stop stop-opacity="1" stop-color="rgb(77.911377%, 77.911377%, 77.911377%)" offset="0.09375"/><stop stop-opacity="1" stop-color="rgb(77.522278%, 77.522278%, 77.522278%)" offset="0.101563"/><stop stop-opacity="1" stop-color="rgb(77.133179%, 77.133179%, 77.133179%)" offset="0.109375"/><stop stop-opacity="1" stop-color="rgb(76.742554%, 76.742554%, 76.742554%)" offset="0.117188"/><stop stop-opacity="1" stop-color="rgb(76.353455%, 76.353455%, 76.353455%)" offset="0.125"/><stop stop-opacity="1" stop-color="rgb(75.964355%, 75.964355%, 75.964355%)" offset="0.132812"/><stop stop-opacity="1" stop-color="rgb(75.575256%, 75.575256%, 75.575256%)" offset="0.140625"/><stop stop-opacity="1" stop-color="rgb(75.186157%, 75.186157%, 75.186157%)" offset="0.148438"/><stop stop-opacity="1" stop-color="rgb(74.797058%, 74.797058%, 74.797058%)" offset="0.15625"/><stop stop-opacity="1" stop-color="rgb(74.407959%, 74.407959%, 74.407959%)" offset="0.164063"/><stop stop-opacity="1" stop-color="rgb(74.01886%, 74.01886%, 74.01886%)" offset="0.171875"/><stop stop-opacity="1" stop-color="rgb(73.629761%, 73.629761%, 73.629761%)" offset="0.179688"/><stop stop-opacity="1" stop-color="rgb(73.240662%, 73.240662%, 73.240662%)" offset="0.1875"/><stop stop-opacity="1" stop-color="rgb(72.851562%, 72.851562%, 72.851562%)" offset="0.195313"/><stop stop-opacity="1" stop-color="rgb(72.462463%, 72.462463%, 72.462463%)" offset="0.203125"/><stop stop-opacity="1" stop-color="rgb(72.073364%, 72.073364%, 72.073364%)" offset="0.210938"/><stop stop-opacity="1" stop-color="rgb(71.684265%, 71.684265%, 71.684265%)" offset="0.21875"/><stop stop-opacity="1" stop-color="rgb(71.295166%, 71.295166%, 71.295166%)" offset="0.226563"/><stop stop-opacity="1" stop-color="rgb(70.906067%, 70.906067%, 70.906067%)" offset="0.234375"/><stop stop-opacity="1" stop-color="rgb(70.516968%, 70.516968%, 70.516968%)" offset="0.242188"/><stop stop-opacity="1" stop-color="rgb(70.127869%, 70.127869%, 70.127869%)" offset="0.25"/><stop stop-opacity="1" stop-color="rgb(69.73877%, 69.73877%, 69.73877%)" offset="0.257813"/><stop stop-opacity="1" stop-color="rgb(69.34967%, 69.34967%, 69.34967%)" offset="0.265625"/><stop stop-opacity="1" stop-color="rgb(68.960571%, 68.960571%, 68.960571%)" offset="0.273438"/><stop stop-opacity="1" stop-color="rgb(68.571472%, 68.571472%, 68.571472%)" offset="0.28125"/><stop stop-opacity="1" stop-color="rgb(68.182373%, 68.182373%, 68.182373%)" offset="0.289062"/><stop stop-opacity="1" stop-color="rgb(67.793274%, 67.793274%, 67.793274%)" offset="0.296875"/><stop stop-opacity="1" stop-color="rgb(67.404175%, 67.404175%, 67.404175%)" offset="0.304688"/><stop stop-opacity="1" stop-color="rgb(67.015076%, 67.015076%, 67.015076%)" offset="0.3125"/><stop stop-opacity="1" stop-color="rgb(66.625977%, 66.625977%, 66.625977%)" offset="0.320313"/><stop stop-opacity="1" stop-color="rgb(66.236877%, 66.236877%, 66.236877%)" offset="0.328125"/><stop stop-opacity="1" stop-color="rgb(65.847778%, 65.847778%, 65.847778%)" offset="0.335938"/><stop stop-opacity="1" stop-color="rgb(65.458679%, 65.458679%, 65.458679%)" offset="0.34375"/><stop stop-opacity="1" stop-color="rgb(65.06958%, 65.06958%, 65.06958%)" offset="0.351563"/><stop stop-opacity="1" stop-color="rgb(64.680481%, 64.680481%, 64.680481%)" offset="0.359375"/><stop stop-opacity="1" stop-color="rgb(64.291382%, 64.291382%, 64.291382%)" offset="0.367188"/><stop stop-opacity="1" stop-color="rgb(63.902283%, 63.902283%, 63.902283%)" offset="0.375"/><stop stop-opacity="1" stop-color="rgb(63.513184%, 63.513184%, 63.513184%)" offset="0.382813"/><stop stop-opacity="1" stop-color="rgb(63.124084%, 63.124084%, 63.124084%)" offset="0.390625"/><stop stop-opacity="1" stop-color="rgb(62.734985%, 62.734985%, 62.734985%)" offset="0.398438"/><stop stop-opacity="1" stop-color="rgb(62.345886%, 62.345886%, 62.345886%)" offset="0.40625"/><stop stop-opacity="1" stop-color="rgb(61.956787%, 61.956787%, 61.956787%)" offset="0.414063"/><stop stop-opacity="1" stop-color="rgb(61.567688%, 61.567688%, 61.567688%)" offset="0.421875"/><stop stop-opacity="1" stop-color="rgb(61.178589%, 61.178589%, 61.178589%)" offset="0.429688"/><stop stop-opacity="1" stop-color="rgb(60.78949%, 60.78949%, 60.78949%)" offset="0.4375"/><stop stop-opacity="1" stop-color="rgb(60.400391%, 60.400391%, 60.400391%)" offset="0.445313"/><stop stop-opacity="1" stop-color="rgb(60.011292%, 60.011292%, 60.011292%)" offset="0.453125"/><stop stop-opacity="1" stop-color="rgb(59.622192%, 59.622192%, 59.622192%)" offset="0.460938"/><stop stop-opacity="1" stop-color="rgb(59.233093%, 59.233093%, 59.233093%)" offset="0.46875"/><stop stop-opacity="1" stop-color="rgb(58.843994%, 58.843994%, 58.843994%)" offset="0.476563"/><stop stop-opacity="1" stop-color="rgb(58.454895%, 58.454895%, 58.454895%)" offset="0.484375"/><stop stop-opacity="1" stop-color="rgb(58.065796%, 58.065796%, 58.065796%)" offset="0.492188"/><stop stop-opacity="1" stop-color="rgb(57.676697%, 57.676697%, 57.676697%)" offset="0.5"/><stop stop-opacity="1" stop-color="rgb(57.286072%, 57.286072%, 57.286072%)" offset="0.507812"/><stop stop-opacity="1" stop-color="rgb(56.896973%, 56.896973%, 56.896973%)" offset="0.515625"/><stop stop-opacity="1" stop-color="rgb(56.507874%, 56.507874%, 56.507874%)" offset="0.523438"/><stop stop-opacity="1" stop-color="rgb(56.118774%, 56.118774%, 56.118774%)" offset="0.53125"/><stop stop-opacity="1" stop-color="rgb(55.729675%, 55.729675%, 55.729675%)" offset="0.539063"/><stop stop-opacity="1" stop-color="rgb(55.340576%, 55.340576%, 55.340576%)" offset="0.546875"/><stop stop-opacity="1" stop-color="rgb(54.951477%, 54.951477%, 54.951477%)" offset="0.554688"/><stop stop-opacity="1" stop-color="rgb(54.562378%, 54.562378%, 54.562378%)" offset="0.5625"/><stop stop-opacity="1" stop-color="rgb(54.173279%, 54.173279%, 54.173279%)" offset="0.570313"/><stop stop-opacity="1" stop-color="rgb(53.78418%, 53.78418%, 53.78418%)" offset="0.578125"/><stop stop-opacity="1" stop-color="rgb(53.395081%, 53.395081%, 53.395081%)" offset="0.585938"/><stop stop-opacity="1" stop-color="rgb(53.005981%, 53.005981%, 53.005981%)" offset="0.59375"/><stop stop-opacity="1" stop-color="rgb(52.616882%, 52.616882%, 52.616882%)" offset="0.601562"/><stop stop-opacity="1" stop-color="rgb(52.227783%, 52.227783%, 52.227783%)" offset="0.609375"/><stop stop-opacity="1" stop-color="rgb(51.838684%, 51.838684%, 51.838684%)" offset="0.617188"/><stop stop-opacity="1" stop-color="rgb(51.449585%, 51.449585%, 51.449585%)" offset="0.625"/><stop stop-opacity="1" stop-color="rgb(51.060486%, 51.060486%, 51.060486%)" offset="0.632812"/><stop stop-opacity="1" stop-color="rgb(50.671387%, 50.671387%, 50.671387%)" offset="0.640625"/><stop stop-opacity="1" stop-color="rgb(50.282288%, 50.282288%, 50.282288%)" offset="0.648438"/><stop stop-opacity="1" stop-color="rgb(49.893188%, 49.893188%, 49.893188%)" offset="0.65625"/><stop stop-opacity="1" stop-color="rgb(49.504089%, 49.504089%, 49.504089%)" offset="0.664063"/><stop stop-opacity="1" stop-color="rgb(49.11499%, 49.11499%, 49.11499%)" offset="0.671875"/><stop stop-opacity="1" stop-color="rgb(48.725891%, 48.725891%, 48.725891%)" offset="0.679688"/><stop stop-opacity="1" stop-color="rgb(48.336792%, 48.336792%, 48.336792%)" offset="0.6875"/><stop stop-opacity="1" stop-color="rgb(47.947693%, 47.947693%, 47.947693%)" offset="0.695312"/><stop stop-opacity="1" stop-color="rgb(47.558594%, 47.558594%, 47.558594%)" offset="0.703125"/><stop stop-opacity="1" stop-color="rgb(47.169495%, 47.169495%, 47.169495%)" offset="0.710938"/><stop stop-opacity="1" stop-color="rgb(46.780396%, 46.780396%, 46.780396%)" offset="0.71875"/><stop stop-opacity="1" stop-color="rgb(46.391296%, 46.391296%, 46.391296%)" offset="0.726562"/><stop stop-opacity="1" stop-color="rgb(46.002197%, 46.002197%, 46.002197%)" offset="0.734375"/><stop stop-opacity="1" stop-color="rgb(45.613098%, 45.613098%, 45.613098%)" offset="0.742188"/><stop stop-opacity="1" stop-color="rgb(45.223999%, 45.223999%, 45.223999%)" offset="0.75"/><stop stop-opacity="1" stop-color="rgb(44.8349%, 44.8349%, 44.8349%)" offset="0.757813"/><stop stop-opacity="1" stop-color="rgb(44.445801%, 44.445801%, 44.445801%)" offset="0.765625"/><stop stop-opacity="1" stop-color="rgb(44.056702%, 44.056702%, 44.056702%)" offset="0.773438"/><stop stop-opacity="1" stop-color="rgb(43.667603%, 43.667603%, 43.667603%)" offset="0.78125"/><stop stop-opacity="1" stop-color="rgb(43.278503%, 43.278503%, 43.278503%)" offset="0.789063"/><stop stop-opacity="1" stop-color="rgb(42.889404%, 42.889404%, 42.889404%)" offset="0.796875"/><stop stop-opacity="1" stop-color="rgb(42.500305%, 42.500305%, 42.500305%)" offset="0.804688"/><stop stop-opacity="1" stop-color="rgb(42.111206%, 42.111206%, 42.111206%)" offset="0.8125"/><stop stop-opacity="1" stop-color="rgb(41.722107%, 41.722107%, 41.722107%)" offset="0.820312"/><stop stop-opacity="1" stop-color="rgb(41.333008%, 41.333008%, 41.333008%)" offset="0.828125"/><stop stop-opacity="1" stop-color="rgb(40.943909%, 40.943909%, 40.943909%)" offset="0.835937"/><stop stop-opacity="1" stop-color="rgb(40.55481%, 40.55481%, 40.55481%)" offset="0.84375"/><stop stop-opacity="1" stop-color="rgb(40.179443%, 40.179443%, 40.179443%)" offset="0.875"/><stop stop-opacity="1" stop-color="rgb(39.99939%, 39.99939%, 39.99939%)" offset="1"/></linearGradient><clipPath id="6195041146"><path d="M 7 9 L 27 9 L 27 52 L 7 52 Z M 7 9 " clip-rule="nonzero"/></clipPath><clipPath id="224fef5431"><path d="M -27.335938 38.160156 L 28.472656 -6.550781 L 83.074219 61.597656 L 27.269531 106.3125 Z M -27.335938 38.160156 " clip-rule="nonzero"/></clipPath><clipPath id="1b47060a98"><path d="M -27.335938 38.160156 L 28.472656 -6.550781 L 83.074219 61.597656 L 27.269531 106.3125 Z M -27.335938 38.160156 " clip-rule="nonzero"/></clipPath><clipPath id="1f64e9cb9d"><path d="M 19.820312 10.171875 C 24.636719 19.28125 14.886719 39.125 7.917969 51.671875 L 7.917969 51.675781 C 10.140625 51.835938 12.632812 51.605469 15.316406 51.144531 C 28.925781 25.078125 29.125 13.917969 19.195312 9.039062 C 19.425781 9.40625 19.636719 9.785156 19.820312 10.171875 Z M 19.820312 10.171875 " clip-rule="evenodd"/></clipPath><linearGradient x1="105.737763" gradientTransform="matrix(0.0632469, -0.0506747, 0.0506747, 0.0632469, -19.204751, 31.691925)" y1="265.883" x2="640.178022" gradientUnits="userSpaceOnUse" y2="265.883" id="28885c1c49"><stop stop-opacity="1" stop-color="rgb(79.998779%, 79.998779%, 79.998779%)" offset="0"/><stop stop-opacity="1" stop-color="rgb(79.86908%, 79.86908%, 79.86908%)" offset="0.0078125"/><stop stop-opacity="1" stop-color="rgb(79.556274%, 79.556274%, 79.556274%)" offset="0.015625"/><stop stop-opacity="1" stop-color="rgb(79.188538%, 79.188538%, 79.188538%)" offset="0.0234375"/><stop stop-opacity="1" stop-color="rgb(78.820801%, 78.820801%, 78.820801%)" offset="0.03125"/><stop stop-opacity="1" stop-color="rgb(78.453064%, 78.453064%, 78.453064%)" offset="0.0390625"/><stop stop-opacity="1" stop-color="rgb(78.085327%, 78.085327%, 78.085327%)" offset="0.046875"/><stop stop-opacity="1" stop-color="rgb(77.71759%, 77.71759%, 77.71759%)" offset="0.0546875"/><stop stop-opacity="1" stop-color="rgb(77.349854%, 77.349854%, 77.349854%)" offset="0.0625"/><stop stop-opacity="1" stop-color="rgb(76.982117%, 76.982117%, 76.982117%)" offset="0.0703125"/><stop stop-opacity="1" stop-color="rgb(76.61438%, 76.61438%, 76.61438%)" offset="0.078125"/><stop stop-opacity="1" stop-color="rgb(76.246643%, 76.246643%, 76.246643%)" offset="0.0859375"/><stop stop-opacity="1" stop-color="rgb(75.878906%, 75.878906%, 75.878906%)" offset="0.09375"/><stop stop-opacity="1" stop-color="rgb(75.511169%, 75.511169%, 75.511169%)" offset="0.101562"/><stop stop-opacity="1" stop-color="rgb(75.143433%, 75.143433%, 75.143433%)" offset="0.109375"/><stop stop-opacity="1" stop-color="rgb(74.775696%, 74.775696%, 74.775696%)" offset="0.117188"/><stop stop-opacity="1" stop-color="rgb(74.407959%, 74.407959%, 74.407959%)" offset="0.125"/><stop stop-opacity="1" stop-color="rgb(74.040222%, 74.040222%, 74.040222%)" offset="0.132812"/><stop stop-opacity="1" stop-color="rgb(73.672485%, 73.672485%, 73.672485%)" offset="0.140625"/><stop stop-opacity="1" stop-color="rgb(73.304749%, 73.304749%, 73.304749%)" offset="0.148438"/><stop stop-opacity="1" stop-color="rgb(72.937012%, 72.937012%, 72.937012%)" offset="0.15625"/><stop stop-opacity="1" stop-color="rgb(72.569275%, 72.569275%, 72.569275%)" offset="0.164062"/><stop stop-opacity="1" stop-color="rgb(72.201538%, 72.201538%, 72.201538%)" offset="0.171875"/><stop stop-opacity="1" stop-color="rgb(71.833801%, 71.833801%, 71.833801%)" offset="0.179687"/><stop stop-opacity="1" stop-color="rgb(71.466064%, 71.466064%, 71.466064%)" offset="0.1875"/><stop stop-opacity="1" stop-color="rgb(71.098328%, 71.098328%, 71.098328%)" offset="0.195312"/><stop stop-opacity="1" stop-color="rgb(70.730591%, 70.730591%, 70.730591%)" offset="0.203125"/><stop stop-opacity="1" stop-color="rgb(70.362854%, 70.362854%, 70.362854%)" offset="0.210937"/><stop stop-opacity="1" stop-color="rgb(69.995117%, 69.995117%, 69.995117%)" offset="0.21875"/><stop stop-opacity="1" stop-color="rgb(69.62738%, 69.62738%, 69.62738%)" offset="0.226562"/><stop stop-opacity="1" stop-color="rgb(69.259644%, 69.259644%, 69.259644%)" offset="0.234375"/><stop stop-opacity="1" stop-color="rgb(68.891907%, 68.891907%, 68.891907%)" offset="0.242188"/><stop stop-opacity="1" stop-color="rgb(68.522644%, 68.522644%, 68.522644%)" offset="0.25"/><stop stop-opacity="1" stop-color="rgb(68.154907%, 68.154907%, 68.154907%)" offset="0.257812"/><stop stop-opacity="1" stop-color="rgb(67.78717%, 67.78717%, 67.78717%)" offset="0.265625"/><stop stop-opacity="1" stop-color="rgb(67.419434%, 67.419434%, 67.419434%)" offset="0.273438"/><stop stop-opacity="1" stop-color="rgb(67.051697%, 67.051697%, 67.051697%)" offset="0.28125"/><stop stop-opacity="1" stop-color="rgb(66.68396%, 66.68396%, 66.68396%)" offset="0.289062"/><stop stop-opacity="1" stop-color="rgb(66.316223%, 66.316223%, 66.316223%)" offset="0.296875"/><stop stop-opacity="1" stop-color="rgb(65.948486%, 65.948486%, 65.948486%)" offset="0.304687"/><stop stop-opacity="1" stop-color="rgb(65.58075%, 65.58075%, 65.58075%)" offset="0.3125"/><stop stop-opacity="1" stop-color="rgb(65.213013%, 65.213013%, 65.213013%)" offset="0.320312"/><stop stop-opacity="1" stop-color="rgb(64.845276%, 64.845276%, 64.845276%)" offset="0.328125"/><stop stop-opacity="1" stop-color="rgb(64.477539%, 64.477539%, 64.477539%)" offset="0.335938"/><stop stop-opacity="1" stop-color="rgb(64.109802%, 64.109802%, 64.109802%)" offset="0.34375"/><stop stop-opacity="1" stop-color="rgb(63.742065%, 63.742065%, 63.742065%)" offset="0.351562"/><stop stop-opacity="1" stop-color="rgb(63.374329%, 63.374329%, 63.374329%)" offset="0.359375"/><stop stop-opacity="1" stop-color="rgb(63.006592%, 63.006592%, 63.006592%)" offset="0.367187"/><stop stop-opacity="1" stop-color="rgb(62.638855%, 62.638855%, 62.638855%)" offset="0.375"/><stop stop-opacity="1" stop-color="rgb(62.271118%, 62.271118%, 62.271118%)" offset="0.382812"/><stop stop-opacity="1" stop-color="rgb(61.903381%, 61.903381%, 61.903381%)" offset="0.390625"/><stop stop-opacity="1" stop-color="rgb(61.535645%, 61.535645%, 61.535645%)" offset="0.398438"/><stop stop-opacity="1" stop-color="rgb(61.167908%, 61.167908%, 61.167908%)" offset="0.40625"/><stop stop-opacity="1" stop-color="rgb(60.800171%, 60.800171%, 60.800171%)" offset="0.414062"/><stop stop-opacity="1" stop-color="rgb(60.432434%, 60.432434%, 60.432434%)" offset="0.421875"/><stop stop-opacity="1" stop-color="rgb(60.064697%, 60.064697%, 60.064697%)" offset="0.429688"/><stop stop-opacity="1" stop-color="rgb(59.69696%, 59.69696%, 59.69696%)" offset="0.4375"/><stop stop-opacity="1" stop-color="rgb(59.329224%, 59.329224%, 59.329224%)" offset="0.445312"/><stop stop-opacity="1" stop-color="rgb(58.961487%, 58.961487%, 58.961487%)" offset="0.453125"/><stop stop-opacity="1" stop-color="rgb(58.59375%, 58.59375%, 58.59375%)" offset="0.460938"/><stop stop-opacity="1" stop-color="rgb(58.226013%, 58.226013%, 58.226013%)" offset="0.46875"/><stop stop-opacity="1" stop-color="rgb(57.858276%, 57.858276%, 57.858276%)" offset="0.476563"/><stop stop-opacity="1" stop-color="rgb(57.49054%, 57.49054%, 57.49054%)" offset="0.484375"/><stop stop-opacity="1" stop-color="rgb(57.122803%, 57.122803%, 57.122803%)" offset="0.492188"/><stop stop-opacity="1" stop-color="rgb(56.755066%, 56.755066%, 56.755066%)" offset="0.5"/><stop stop-opacity="1" stop-color="rgb(56.387329%, 56.387329%, 56.387329%)" offset="0.507812"/><stop stop-opacity="1" stop-color="rgb(56.019592%, 56.019592%, 56.019592%)" offset="0.515625"/><stop stop-opacity="1" stop-color="rgb(55.651855%, 55.651855%, 55.651855%)" offset="0.523438"/><stop stop-opacity="1" stop-color="rgb(55.284119%, 55.284119%, 55.284119%)" offset="0.53125"/><stop stop-opacity="1" stop-color="rgb(54.916382%, 54.916382%, 54.916382%)" offset="0.539062"/><stop stop-opacity="1" stop-color="rgb(54.548645%, 54.548645%, 54.548645%)" offset="0.546875"/><stop stop-opacity="1" stop-color="rgb(54.180908%, 54.180908%, 54.180908%)" offset="0.554688"/><stop stop-opacity="1" stop-color="rgb(53.813171%, 53.813171%, 53.813171%)" offset="0.5625"/><stop stop-opacity="1" stop-color="rgb(53.445435%, 53.445435%, 53.445435%)" offset="0.570312"/><stop stop-opacity="1" stop-color="rgb(53.077698%, 53.077698%, 53.077698%)" offset="0.578125"/><stop stop-opacity="1" stop-color="rgb(52.709961%, 52.709961%, 52.709961%)" offset="0.585938"/><stop stop-opacity="1" stop-color="rgb(52.342224%, 52.342224%, 52.342224%)" offset="0.59375"/><stop stop-opacity="1" stop-color="rgb(51.974487%, 51.974487%, 51.974487%)" offset="0.601562"/><stop stop-opacity="1" stop-color="rgb(51.60675%, 51.60675%, 51.60675%)" offset="0.609375"/><stop stop-opacity="1" stop-color="rgb(51.239014%, 51.239014%, 51.239014%)" offset="0.617187"/><stop stop-opacity="1" stop-color="rgb(50.871277%, 50.871277%, 50.871277%)" offset="0.625"/><stop stop-opacity="1" stop-color="rgb(50.50354%, 50.50354%, 50.50354%)" offset="0.632812"/><stop stop-opacity="1" stop-color="rgb(50.135803%, 50.135803%, 50.135803%)" offset="0.640625"/><stop stop-opacity="1" stop-color="rgb(49.768066%, 49.768066%, 49.768066%)" offset="0.648438"/><stop stop-opacity="1" stop-color="rgb(49.40033%, 49.40033%, 49.40033%)" offset="0.65625"/><stop stop-opacity="1" stop-color="rgb(49.032593%, 49.032593%, 49.032593%)" offset="0.664062"/><stop stop-opacity="1" stop-color="rgb(48.664856%, 48.664856%, 48.664856%)" offset="0.671875"/><stop stop-opacity="1" stop-color="rgb(48.297119%, 48.297119%, 48.297119%)" offset="0.679687"/><stop stop-opacity="1" stop-color="rgb(47.929382%, 47.929382%, 47.929382%)" offset="0.6875"/><stop stop-opacity="1" stop-color="rgb(47.561646%, 47.561646%, 47.561646%)" offset="0.695312"/><stop stop-opacity="1" stop-color="rgb(47.193909%, 47.193909%, 47.193909%)" offset="0.703125"/><stop stop-opacity="1" stop-color="rgb(46.826172%, 46.826172%, 46.826172%)" offset="0.710937"/><stop stop-opacity="1" stop-color="rgb(46.456909%, 46.456909%, 46.456909%)" offset="0.71875"/><stop stop-opacity="1" stop-color="rgb(46.089172%, 46.089172%, 46.089172%)" offset="0.726562"/><stop stop-opacity="1" stop-color="rgb(45.721436%, 45.721436%, 45.721436%)" offset="0.734375"/><stop stop-opacity="1" stop-color="rgb(45.353699%, 45.353699%, 45.353699%)" offset="0.742187"/><stop stop-opacity="1" stop-color="rgb(44.985962%, 44.985962%, 44.985962%)" offset="0.75"/><stop stop-opacity="1" stop-color="rgb(44.618225%, 44.618225%, 44.618225%)" offset="0.757812"/><stop stop-opacity="1" stop-color="rgb(44.250488%, 44.250488%, 44.250488%)" offset="0.765625"/><stop stop-opacity="1" stop-color="rgb(43.882751%, 43.882751%, 43.882751%)" offset="0.773438"/><stop stop-opacity="1" stop-color="rgb(43.515015%, 43.515015%, 43.515015%)" offset="0.78125"/><stop stop-opacity="1" stop-color="rgb(43.147278%, 43.147278%, 43.147278%)" offset="0.789062"/><stop stop-opacity="1" stop-color="rgb(42.779541%, 42.779541%, 42.779541%)" offset="0.796875"/><stop stop-opacity="1" stop-color="rgb(42.411804%, 42.411804%, 42.411804%)" offset="0.804688"/><stop stop-opacity="1" stop-color="rgb(42.044067%, 42.044067%, 42.044067%)" offset="0.8125"/><stop stop-opacity="1" stop-color="rgb(41.676331%, 41.676331%, 41.676331%)" offset="0.820312"/><stop stop-opacity="1" stop-color="rgb(41.308594%, 41.308594%, 41.308594%)" offset="0.828125"/><stop stop-opacity="1" stop-color="rgb(40.940857%, 40.940857%, 40.940857%)" offset="0.835937"/><stop stop-opacity="1" stop-color="rgb(40.57312%, 40.57312%, 40.57312%)" offset="0.84375"/><stop stop-opacity="1" stop-color="rgb(40.194702%, 40.194702%, 40.194702%)" offset="0.875"/><stop stop-opacity="1" stop-color="rgb(39.99939%, 39.99939%, 39.99939%)" offset="1"/></linearGradient><clipPath id="bbd99e66e5"><path d="M 0 46 L 70 46 L 70 62 L 0 62 Z M 0 46 " clip-rule="nonzero"/></clipPath><clipPath id="c20e4357d9"><path d="M -27.335938 38.160156 L 28.472656 -6.550781 L 83.074219 61.597656 L 27.269531 106.3125 Z M -27.335938 38.160156 " clip-rule="nonzero"/></clipPath><clipPath id="8db9a347e9"><path d="M -27.335938 38.160156 L 28.472656 -6.550781 L 83.074219 61.597656 L 27.269531 106.3125 Z M -27.335938 38.160156 " clip-rule="nonzero"/></clipPath><clipPath id="da652d50a7"><path d="M 33.210938 56.191406 C 15.402344 61.277344 2.984375 60.75 0.828125 49.542969 C 14.082031 64.371094 55.945312 27.609375 69.464844 61.445312 C 58.59375 50.328125 45.585938 53.707031 33.210938 56.191406 Z M 33.210938 56.191406 " clip-rule="evenodd"/></clipPath><clipPath id="02a9d56869"><path d="M 3 55 L 72 55 L 72 71 L 3 71 Z M 3 55 " clip-rule="nonzero"/></clipPath><clipPath id="19aa63c305"><path d="M -27.335938 38.160156 L 28.472656 -6.550781 L 83.074219 61.597656 L 27.269531 106.3125 Z M -27.335938 38.160156 " clip-rule="nonzero"/></clipPath><clipPath id="08787d18ac"><path d="M -27.335938 38.160156 L 28.472656 -6.550781 L 83.074219 61.597656 L 27.269531 106.3125 Z M -27.335938 38.160156 " clip-rule="nonzero"/></clipPath><clipPath id="678484b673"><path d="M 3.015625 56.585938 C 18.621094 72.121094 60.550781 36.410156 71.96875 70.554688 C 50.652344 48.753906 7.945312 82.195312 3.015625 56.585938 Z M 3.015625 56.585938 " clip-rule="evenodd"/></clipPath></defs><g fill="#373643" fill-opacity="1"><g transform="translate(23.580249, 44.603245)"><g><path d="M 38.625 0 C 38.09375 0.101562 37.425781 0.1875 36.625 0.25 C 35.832031 0.320312 35.148438 0.359375 34.578125 0.359375 C 33.234375 0.359375 32.15625 0.253906 31.34375 0.046875 C 30.539062 -0.148438 29.851562 -0.523438 29.28125 -1.078125 C 28.707031 -1.640625 28.21875 -2.460938 27.8125 -3.546875 L 26.140625 -7.984375 L 10.625 -7.984375 C 9.738281 -5.359375 9.03125 -2.695312 8.5 0 C 7.957031 0.101562 7.289062 0.1875 6.5 0.25 C 5.707031 0.320312 5.007812 0.359375 4.40625 0.359375 C 1.664062 0.359375 0.296875 -0.566406 0.296875 -2.421875 C 0.296875 -3.066406 0.457031 -3.976562 0.78125 -5.15625 C 1.101562 -6.332031 1.550781 -7.628906 2.125 -9.046875 C 3.507812 -12.722656 5.394531 -16.894531 7.78125 -21.5625 C 10.175781 -26.226562 12.535156 -30.367188 14.859375 -33.984375 L 13.90625 -36.859375 C 14.40625 -36.960938 15.023438 -37.046875 15.765625 -37.109375 C 16.515625 -37.179688 17.191406 -37.21875 17.796875 -37.21875 C 19.347656 -37.21875 20.546875 -37.039062 21.390625 -36.6875 C 22.234375 -36.332031 22.941406 -35.710938 23.515625 -34.828125 C 24.085938 -33.953125 24.773438 -32.570312 25.578125 -30.6875 Z M 23.46875 -15.015625 L 18.8125 -27.25 C 16.71875 -23.238281 14.847656 -19.160156 13.203125 -15.015625 Z M 23.46875 -15.015625 "/></g></g></g><g fill="#373643" fill-opacity="1"><g transform="translate(60.442234, 44.603245)"><g><path d="M 32.921875 -5.96875 C 32.984375 -5.625 33.039062 -5.300781 33.09375 -5 C 33.144531 -4.695312 33.171875 -4.378906 33.171875 -4.046875 C 33.171875 -2.359375 32.695312 -1.128906 31.75 -0.359375 C 31.25 0.046875 30.632812 0.316406 29.90625 0.453125 C 29.1875 0.585938 28.367188 0.65625 27.453125 0.65625 C 25.972656 0.65625 24.742188 0.429688 23.765625 -0.015625 C 22.785156 -0.472656 22.0625 -1.257812 21.59375 -2.375 C 20.582031 -1.332031 19.394531 -0.539062 18.03125 0 C 16.664062 0.539062 15.1875 0.8125 13.59375 0.8125 C 11.4375 0.8125 9.457031 0.253906 7.65625 -0.859375 C 5.851562 -1.972656 4.421875 -3.597656 3.359375 -5.734375 C 2.296875 -7.878906 1.765625 -10.4375 1.765625 -13.40625 C 1.765625 -16.40625 2.320312 -18.984375 3.4375 -21.140625 C 4.550781 -23.296875 6.023438 -24.925781 7.859375 -26.03125 C 9.703125 -27.144531 11.71875 -27.703125 13.90625 -27.703125 C 15.289062 -27.703125 16.613281 -27.457031 17.875 -26.96875 C 19.132812 -26.476562 20.253906 -25.765625 21.234375 -24.828125 C 21.566406 -25.734375 22.140625 -26.390625 22.953125 -26.796875 C 23.765625 -27.203125 24.910156 -27.40625 26.390625 -27.40625 C 26.960938 -27.40625 27.566406 -27.367188 28.203125 -27.296875 C 28.847656 -27.234375 29.390625 -27.164062 29.828125 -27.09375 L 29.828125 -8.09375 C 29.828125 -7.25 29.945312 -6.648438 30.1875 -6.296875 C 30.425781 -5.941406 30.878906 -5.765625 31.546875 -5.765625 C 32.085938 -5.765625 32.546875 -5.832031 32.921875 -5.96875 Z M 10.765625 -13.453125 C 10.765625 -12.003906 11.007812 -10.75 11.5 -9.6875 C 11.988281 -8.625 12.671875 -7.820312 13.546875 -7.28125 C 14.421875 -6.738281 15.398438 -6.46875 16.484375 -6.46875 C 17.328125 -6.46875 18.117188 -6.601562 18.859375 -6.875 C 19.597656 -7.144531 20.269531 -7.535156 20.875 -8.046875 L 20.875 -18.859375 C 19.59375 -19.898438 18.113281 -20.421875 16.4375 -20.421875 C 15.320312 -20.421875 14.34375 -20.148438 13.5 -19.609375 C 12.65625 -19.078125 11.988281 -18.28125 11.5 -17.21875 C 11.007812 -16.15625 10.765625 -14.898438 10.765625 -13.453125 Z M 10.765625 -13.453125 "/></g></g></g><g fill="#373643" fill-opacity="1"><g transform="translate(92.095985, 44.603245)"><g><path d="M 18.15625 -30.796875 C 16.9375 -30.796875 15.957031 -30.441406 15.21875 -29.734375 C 14.476562 -29.023438 14.109375 -27.894531 14.109375 -26.34375 L 14.109375 -25.84375 L 21.640625 -25.84375 C 21.703125 -25.570312 21.757812 -25.21875 21.8125 -24.78125 C 21.863281 -24.34375 21.890625 -23.921875 21.890625 -23.515625 C 21.890625 -22.296875 21.796875 -21.375 21.609375 -20.75 C 21.429688 -20.132812 21.097656 -19.707031 20.609375 -19.46875 C 20.117188 -19.226562 19.398438 -19.109375 18.453125 -19.109375 L 14.109375 -19.109375 L 14.109375 0.203125 C 13.671875 0.265625 13.140625 0.320312 12.515625 0.375 C 11.890625 0.425781 11.34375 0.453125 10.875 0.453125 C 9.519531 0.453125 8.460938 0.316406 7.703125 0.046875 C 6.953125 -0.222656 6.40625 -0.691406 6.0625 -1.359375 C 5.726562 -2.035156 5.5625 -3.03125 5.5625 -4.34375 L 5.5625 -19.109375 L 0.8125 -19.109375 C 0.738281 -19.410156 0.6875 -19.78125 0.65625 -20.21875 C 0.625 -20.65625 0.609375 -21.078125 0.609375 -21.484375 C 0.609375 -22.703125 0.695312 -23.613281 0.875 -24.21875 C 1.0625 -24.820312 1.398438 -25.242188 1.890625 -25.484375 C 2.378906 -25.722656 3.097656 -25.84375 4.046875 -25.84375 L 5.5625 -25.84375 C 5.59375 -29.78125 6.601562 -32.734375 8.59375 -34.703125 C 10.582031 -36.679688 13.3125 -37.671875 16.78125 -37.671875 C 17.894531 -37.671875 18.90625 -37.578125 19.8125 -37.390625 C 20.726562 -37.203125 21.503906 -36.925781 22.140625 -36.5625 C 23.191406 -36.019531 23.71875 -35.140625 23.71875 -33.921875 C 23.71875 -33.253906 23.582031 -32.554688 23.3125 -31.828125 C 23.039062 -31.097656 22.632812 -30.414062 22.09375 -29.78125 C 21.59375 -30.082031 20.992188 -30.328125 20.296875 -30.515625 C 19.609375 -30.703125 18.894531 -30.796875 18.15625 -30.796875 Z M 18.15625 -30.796875 "/></g></g></g><g fill="#373643" fill-opacity="1"><g transform="translate(113.737806, 44.603245)"><g><path d="M 7.4375 -30.796875 C 5.78125 -30.796875 4.515625 -31.101562 3.640625 -31.71875 C 2.765625 -32.34375 2.328125 -33.28125 2.328125 -34.53125 C 2.328125 -35.78125 2.765625 -36.71875 3.640625 -37.34375 C 4.515625 -37.96875 5.78125 -38.28125 7.4375 -38.28125 C 9.050781 -38.28125 10.304688 -37.96875 11.203125 -37.34375 C 12.097656 -36.71875 12.546875 -35.78125 12.546875 -34.53125 C 12.546875 -33.28125 12.097656 -32.34375 11.203125 -31.71875 C 10.304688 -31.101562 9.050781 -30.796875 7.4375 -30.796875 Z M 9.5 0.65625 C 8.050781 0.65625 6.847656 0.441406 5.890625 0.015625 C 4.929688 -0.398438 4.195312 -1.128906 3.6875 -2.171875 C 3.1875 -3.210938 2.9375 -4.644531 2.9375 -6.46875 L 2.9375 -27.09375 C 3.375 -27.164062 3.898438 -27.234375 4.515625 -27.296875 C 5.140625 -27.367188 5.738281 -27.40625 6.3125 -27.40625 C 7.726562 -27.40625 8.820312 -27.269531 9.59375 -27 C 10.375 -26.726562 10.941406 -26.242188 11.296875 -25.546875 C 11.648438 -24.859375 11.828125 -23.875 11.828125 -22.59375 L 11.828125 -8.09375 C 11.828125 -7.25 11.953125 -6.648438 12.203125 -6.296875 C 12.460938 -5.941406 12.925781 -5.765625 13.59375 -5.765625 C 14.164062 -5.765625 14.609375 -5.832031 14.921875 -5.96875 C 15.015625 -5.625 15.078125 -5.300781 15.109375 -5 C 15.148438 -4.695312 15.171875 -4.378906 15.171875 -4.046875 C 15.171875 -2.359375 14.695312 -1.128906 13.75 -0.359375 C 13.25 0.046875 12.644531 0.316406 11.9375 0.453125 C 11.226562 0.585938 10.414062 0.65625 9.5 0.65625 Z M 9.5 0.65625 "/></g></g></g><g fill="#373643" fill-opacity="1"><g transform="translate(127.390305, 44.603245)"><g><path d="M 23.515625 -27.40625 C 24.929688 -27.40625 26.015625 -27.269531 26.765625 -27 C 27.523438 -26.726562 28.082031 -26.253906 28.4375 -25.578125 C 28.789062 -24.910156 28.96875 -23.914062 28.96875 -22.59375 L 28.96875 -4.953125 C 28.96875 0.0351562 27.703125 3.707031 25.171875 6.0625 C 22.648438 8.425781 18.859375 9.609375 13.796875 9.609375 C 11.984375 9.609375 10.328125 9.4375 8.828125 9.09375 C 7.328125 8.757812 6.070312 8.34375 5.0625 7.84375 C 4.28125 7.46875 3.6875 7.035156 3.28125 6.546875 C 2.882812 6.054688 2.6875 5.472656 2.6875 4.796875 C 2.6875 3.585938 3.390625 1.988281 4.796875 0 C 5.878906 0.738281 7.1875 1.382812 8.71875 1.9375 C 10.25 2.5 11.8125 2.78125 13.40625 2.78125 C 15.488281 2.78125 17.066406 2.289062 18.140625 1.3125 C 19.222656 0.332031 19.847656 -1.21875 20.015625 -3.34375 C 19.078125 -2.664062 17.992188 -2.148438 16.765625 -1.796875 C 15.535156 -1.441406 14.191406 -1.265625 12.734375 -1.265625 C 9.609375 -1.265625 7.148438 -2.179688 5.359375 -4.015625 C 3.578125 -5.859375 2.6875 -8.816406 2.6875 -12.890625 L 2.6875 -27.15625 C 3.125 -27.21875 3.660156 -27.273438 4.296875 -27.328125 C 4.941406 -27.378906 5.53125 -27.40625 6.0625 -27.40625 C 7.476562 -27.40625 8.570312 -27.269531 9.34375 -27 C 10.125 -26.726562 10.691406 -26.253906 11.046875 -25.578125 C 11.398438 -24.910156 11.578125 -23.914062 11.578125 -22.59375 L 11.578125 -13.75 C 11.578125 -10.3125 12.992188 -8.59375 15.828125 -8.59375 C 16.640625 -8.59375 17.40625 -8.742188 18.125 -9.046875 C 18.851562 -9.347656 19.503906 -9.753906 20.078125 -10.265625 L 20.078125 -27.15625 C 20.515625 -27.21875 21.050781 -27.273438 21.6875 -27.328125 C 22.332031 -27.378906 22.941406 -27.40625 23.515625 -27.40625 Z M 23.515625 -27.40625 "/></g></g></g><g fill="#373643" fill-opacity="1"><g transform="translate(157.274276, 44.603245)"><g><path d="M 32.921875 -5.96875 C 32.984375 -5.625 33.039062 -5.300781 33.09375 -5 C 33.144531 -4.695312 33.171875 -4.378906 33.171875 -4.046875 C 33.171875 -2.359375 32.695312 -1.128906 31.75 -0.359375 C 31.25 0.046875 30.632812 0.316406 29.90625 0.453125 C 29.1875 0.585938 28.367188 0.65625 27.453125 0.65625 C 25.972656 0.65625 24.742188 0.429688 23.765625 -0.015625 C 22.785156 -0.472656 22.0625 -1.257812 21.59375 -2.375 C 20.582031 -1.332031 19.394531 -0.539062 18.03125 0 C 16.664062 0.539062 15.1875 0.8125 13.59375 0.8125 C 11.4375 0.8125 9.457031 0.253906 7.65625 -0.859375 C 5.851562 -1.972656 4.421875 -3.597656 3.359375 -5.734375 C 2.296875 -7.878906 1.765625 -10.4375 1.765625 -13.40625 C 1.765625 -16.40625 2.320312 -18.984375 3.4375 -21.140625 C 4.550781 -23.296875 6.023438 -24.925781 7.859375 -26.03125 C 9.703125 -27.144531 11.71875 -27.703125 13.90625 -27.703125 C 15.289062 -27.703125 16.613281 -27.457031 17.875 -26.96875 C 19.132812 -26.476562 20.253906 -25.765625 21.234375 -24.828125 C 21.566406 -25.734375 22.140625 -26.390625 22.953125 -26.796875 C 23.765625 -27.203125 24.910156 -27.40625 26.390625 -27.40625 C 26.960938 -27.40625 27.566406 -27.367188 28.203125 -27.296875 C 28.847656 -27.234375 29.390625 -27.164062 29.828125 -27.09375 L 29.828125 -8.09375 C 29.828125 -7.25 29.945312 -6.648438 30.1875 -6.296875 C 30.425781 -5.941406 30.878906 -5.765625 31.546875 -5.765625 C 32.085938 -5.765625 32.546875 -5.832031 32.921875 -5.96875 Z M 10.765625 -13.453125 C 10.765625 -12.003906 11.007812 -10.75 11.5 -9.6875 C 11.988281 -8.625 12.671875 -7.820312 13.546875 -7.28125 C 14.421875 -6.738281 15.398438 -6.46875 16.484375 -6.46875 C 17.328125 -6.46875 18.117188 -6.601562 18.859375 -6.875 C 19.597656 -7.144531 20.269531 -7.535156 20.875 -8.046875 L 20.875 -18.859375 C 19.59375 -19.898438 18.113281 -20.421875 16.4375 -20.421875 C 15.320312 -20.421875 14.34375 -20.148438 13.5 -19.609375 C 12.65625 -19.078125 11.988281 -18.28125 11.5 -17.21875 C 11.007812 -16.15625 10.765625 -14.898438 10.765625 -13.453125 Z M 10.765625 -13.453125 "/></g></g></g><g fill="#373643" fill-opacity="1"><g transform="translate(188.92803, 44.603245)"><g><path d="M 32.359375 -5.96875 C 32.460938 -5.625 32.53125 -5.300781 32.5625 -5 C 32.59375 -4.695312 32.609375 -4.378906 32.609375 -4.046875 C 32.609375 -2.328125 32.140625 -1.097656 31.203125 -0.359375 C 30.691406 0.046875 30.082031 0.316406 29.375 0.453125 C 28.664062 0.585938 27.859375 0.65625 26.953125 0.65625 C 25.503906 0.65625 24.296875 0.441406 23.328125 0.015625 C 22.367188 -0.398438 21.632812 -1.128906 21.125 -2.171875 C 20.625 -3.210938 20.375 -4.644531 20.375 -6.46875 L 20.375 -15.375 C 20.375 -17.257812 19.984375 -18.570312 19.203125 -19.3125 C 18.429688 -20.050781 17.390625 -20.421875 16.078125 -20.421875 C 15.335938 -20.421875 14.585938 -20.273438 13.828125 -19.984375 C 13.066406 -19.703125 12.398438 -19.34375 11.828125 -18.90625 L 11.828125 0.203125 C 11.421875 0.265625 10.90625 0.320312 10.28125 0.375 C 9.664062 0.425781 9.050781 0.453125 8.4375 0.453125 C 7.019531 0.453125 5.925781 0.316406 5.15625 0.046875 C 4.382812 -0.222656 3.820312 -0.703125 3.46875 -1.390625 C 3.113281 -2.078125 2.9375 -3.0625 2.9375 -4.34375 L 2.9375 -37.0625 C 3.375 -37.125 3.898438 -37.179688 4.515625 -37.234375 C 5.140625 -37.285156 5.738281 -37.3125 6.3125 -37.3125 C 7.726562 -37.3125 8.820312 -37.175781 9.59375 -36.90625 C 10.375 -36.632812 10.941406 -36.160156 11.296875 -35.484375 C 11.648438 -34.816406 11.828125 -33.828125 11.828125 -32.515625 L 11.828125 -24.875 C 12.742188 -25.75 13.859375 -26.4375 15.171875 -26.9375 C 16.484375 -27.445312 17.878906 -27.703125 19.359375 -27.703125 C 25.972656 -27.703125 29.28125 -23.8125 29.28125 -16.03125 L 29.28125 -8.09375 C 29.28125 -7.25 29.40625 -6.648438 29.65625 -6.296875 C 29.90625 -5.941406 30.367188 -5.765625 31.046875 -5.765625 C 31.617188 -5.765625 32.054688 -5.832031 32.359375 -5.96875 Z M 32.359375 -5.96875 "/></g></g></g><g clip-path="url(#c7b02ced06)"><g clip-path="url(#5f3805b2c4)"><g clip-path="url(#47483ebf46)"><g clip-path="url(#98fc031e55)"><path fill="url(#612e655121)" d="M -21.046875 23.566406 L 9.945312 62.246094 L 45.820312 33.503906 L 14.828125 -5.179688 Z M -21.046875 23.566406 " fill-rule="nonzero"/></g></g></g></g><g clip-path="url(#6195041146)"><g clip-path="url(#224fef5431)"><g clip-path="url(#1b47060a98)"><g clip-path="url(#1f64e9cb9d)"><path fill="url(#28885c1c49)" d="M -12.96875 25.769531 L 16.207031 62.1875 L 50.011719 35.105469 L 20.832031 -1.3125 Z M -12.96875 25.769531 " fill-rule="nonzero"/></g></g></g></g><g clip-path="url(#bbd99e66e5)"><g clip-path="url(#c20e4357d9)"><g clip-path="url(#8db9a347e9)"><g clip-path="url(#da652d50a7)"><path fill="#ff8e2b" d="M -17.109375 41.980469 L 27.664062 97.863281 L 87.402344 49.996094 L 42.628906 -5.882812 Z M -17.109375 41.980469 " fill-opacity="1" fill-rule="nonzero"/></g></g></g></g><g clip-path="url(#02a9d56869)"><g clip-path="url(#19aa63c305)"><g clip-path="url(#08787d18ac)"><g clip-path="url(#678484b673)"><path fill="#ff8e2b" d="M -15.804688 51.488281 L 29.972656 108.625 L 90.789062 59.898438 L 45.011719 2.761719 Z M -15.804688 51.488281 " fill-opacity="1" fill-rule="nonzero"/></g></g></g></g></svg>