<svg xmlns="http://www.w3.org/2000/svg" xmlns:xlink="http://www.w3.org/1999/xlink" width="300" height="100" preserveAspectRatio="xMidYMid meet" version="1.0" viewBox="0 0 224.88 75" zoomAndPan="magnify"><defs><clipPath id="c7b02ced06"><path d="M 1 5 L 20 5 L 20 52 L 1 52 Z M 1 5" clip-rule="nonzero"/></clipPath><clipPath id="5f3805b2c4"><path d="M -27.335938 38.160156 L 28.472656 -6.550781 L 83.074219 61.597656 L 27.269531 106.3125 Z M -27.335938 38.160156" clip-rule="nonzero"/></clipPath><clipPath id="47483ebf46"><path d="M -27.335938 38.160156 L 28.472656 -6.550781 L 83.074219 61.597656 L 27.269531 106.3125 Z M -27.335938 38.160156" clip-rule="nonzero"/></clipPath><clipPath id="98fc031e55"><path d="M 13.171875 5.75 C 20.671875 10.90625 5.988281 38.289062 1.1875 47.792969 L 1.898438 48.585938 C 3.132812 49.96875 4.683594 50.832031 6.484375 51.316406 C 21.53125 23.125 23.585938 10.757812 13.171875 5.75 Z M 13.171875 5.75" clip-rule="nonzero"/></clipPath><linearGradient id="Infinity" x1="44.949" x2="612.201" y1="193.59" y2="193.59" gradientTransform="matrix(0.0632469, -0.0506747, 0.0506747, 0.0632469, -19.204751, 31.691925)" gradientUnits="userSpaceOnUse"><stop offset="0" stop-color="#CCC" stop-opacity="1"/><stop offset=".031" stop-color="#CCC" stop-opacity="1"/><stop offset=".047" stop-color="#CCC" stop-opacity="1"/><stop offset=".055" stop-color="#CCC" stop-opacity="1"/><stop offset=".063" stop-color="#CBCBCB" stop-opacity="1"/><stop offset=".07" stop-color="#CACACA" stop-opacity="1"/><stop offset=".078" stop-color="#C9C9C9" stop-opacity="1"/><stop offset=".086" stop-color="#C8C8C8" stop-opacity="1"/><stop offset=".094" stop-color="#C7C7C7" stop-opacity="1"/><stop offset=".102" stop-color="#C6C6C6" stop-opacity="1"/><stop offset=".109" stop-color="#C5C5C5" stop-opacity="1"/><stop offset=".117" stop-color="#C4C4C4" stop-opacity="1"/><stop offset=".125" stop-color="#C3C3C3" stop-opacity="1"/><stop offset=".133" stop-color="#C2C2C2" stop-opacity="1"/><stop offset=".141" stop-color="#C1C1C1" stop-opacity="1"/><stop offset=".148" stop-color="silver" stop-opacity="1"/><stop offset=".156" stop-color="#BFBFBF" stop-opacity="1"/><stop offset=".164" stop-color="#BEBEBE" stop-opacity="1"/><stop offset=".172" stop-color="#BDBDBD" stop-opacity="1"/><stop offset=".18" stop-color="#BCBCBC" stop-opacity="1"/><stop offset=".188" stop-color="#BBB" stop-opacity="1"/><stop offset=".195" stop-color="#BABABA" stop-opacity="1"/><stop offset=".203" stop-color="#B9B9B9" stop-opacity="1"/><stop offset=".211" stop-color="#B8B8B8" stop-opacity="1"/><stop offset=".219" stop-color="#B7B7B7" stop-opacity="1"/><stop offset=".227" stop-color="#B6B6B6" stop-opacity="1"/><stop offset=".234" stop-color="#B5B5B5" stop-opacity="1"/><stop offset=".242" stop-color="#B4B4B4" stop-opacity="1"/><stop offset=".25" stop-color="#B3B3B3" stop-opacity="1"/><stop offset=".258" stop-color="#B2B2B2" stop-opacity="1"/><stop offset=".266" stop-color="#B1B1B1" stop-opacity="1"/><stop offset=".273" stop-color="#B0B0B0" stop-opacity="1"/><stop offset=".281" stop-color="#AFAFAF" stop-opacity="1"/><stop offset=".289" stop-color="#AEAEAE" stop-opacity="1"/><stop offset=".297" stop-color="#ADADAD" stop-opacity="1"/><stop offset=".305" stop-color="#ACACAC" stop-opacity="1"/><stop offset=".313" stop-color="#ABABAB" stop-opacity="1"/><stop offset=".32" stop-color="#AAA" stop-opacity="1"/><stop offset=".328" stop-color="#A9A9A9" stop-opacity="1"/><stop offset=".336" stop-color="#A8A8A8" stop-opacity="1"/><stop offset=".344" stop-color="#A7A7A7" stop-opacity="1"/><stop offset=".352" stop-color="#A6A6A6" stop-opacity="1"/><stop offset=".359" stop-color="#A5A5A5" stop-opacity="1"/><stop offset=".367" stop-color="#A4A4A4" stop-opacity="1"/><stop offset=".375" stop-color="#A3A3A3" stop-opacity="1"/><stop offset=".383" stop-color="#A2A2A2" stop-opacity="1"/><stop offset=".391" stop-color="#A1A1A1" stop-opacity="1"/><stop offset=".398" stop-color="#A0A0A0" stop-opacity="1"/><stop offset=".406" stop-color="#9F9F9F" stop-opacity="1"/><stop offset=".414" stop-color="#9E9E9E" stop-opacity="1"/><stop offset=".422" stop-color="#9D9D9D" stop-opacity="1"/><stop offset=".43" stop-color="#9C9C9C" stop-opacity="1"/><stop offset=".438" stop-color="#9B9B9B" stop-opacity="1"/><stop offset=".445" stop-color="#9A9A9A" stop-opacity="1"/><stop offset=".453" stop-color="#999" stop-opacity="1"/><stop offset=".461" stop-color="#989898" stop-opacity="1"/><stop offset=".469" stop-color="#979797" stop-opacity="1"/><stop offset=".477" stop-color="#969696" stop-opacity="1"/><stop offset=".484" stop-color="#959595" stop-opacity="1"/><stop offset=".492" stop-color="#949494" stop-opacity="1"/><stop offset=".5" stop-color="#939393" stop-opacity="1"/><stop offset=".508" stop-color="#929292" stop-opacity="1"/><stop offset=".516" stop-color="#919191" stop-opacity="1"/><stop offset=".523" stop-color="#909090" stop-opacity="1"/><stop offset=".531" stop-color="#8F8F8F" stop-opacity="1"/><stop offset=".539" stop-color="#8E8E8E" stop-opacity="1"/><stop offset=".547" stop-color="#8D8D8D" stop-opacity="1"/><stop offset=".555" stop-color="#8C8C8C" stop-opacity="1"/><stop offset=".563" stop-color="#8B8B8B" stop-opacity="1"/><stop offset=".57" stop-color="#8A8A8A" stop-opacity="1"/><stop offset=".578" stop-color="#898989" stop-opacity="1"/><stop offset=".586" stop-color="#888" stop-opacity="1"/><stop offset=".594" stop-color="#878787" stop-opacity="1"/><stop offset=".602" stop-color="#868686" stop-opacity="1"/><stop offset=".609" stop-color="#858585" stop-opacity="1"/><stop offset=".617" stop-color="#848484" stop-opacity="1"/><stop offset=".625" stop-color="#838383" stop-opacity="1"/><stop offset=".633" stop-color="#828282" stop-opacity="1"/><stop offset=".641" stop-color="#818181" stop-opacity="1"/><stop offset=".648" stop-color="gray" stop-opacity="1"/><stop offset=".656" stop-color="#7F7F7F" stop-opacity="1"/><stop offset=".664" stop-color="#7E7E7E" stop-opacity="1"/><stop offset=".672" stop-color="#7D7D7D" stop-opacity="1"/><stop offset=".68" stop-color="#7C7C7C" stop-opacity="1"/><stop offset=".688" stop-color="#7B7B7B" stop-opacity="1"/><stop offset=".695" stop-color="#7A7A7A" stop-opacity="1"/><stop offset=".703" stop-color="#797979" stop-opacity="1"/><stop offset=".711" stop-color="#787878" stop-opacity="1"/><stop offset=".719" stop-color="#777" stop-opacity="1"/><stop offset=".727" stop-color="#767676" stop-opacity="1"/><stop offset=".734" stop-color="#757575" stop-opacity="1"/><stop offset=".742" stop-color="#747474" stop-opacity="1"/><stop offset=".75" stop-color="#737373" stop-opacity="1"/><stop offset=".758" stop-color="#727272" stop-opacity="1"/><stop offset=".766" stop-color="#717171" stop-opacity="1"/><stop offset=".773" stop-color="#707070" stop-opacity="1"/><stop offset=".781" stop-color="#6F6F6F" stop-opacity="1"/><stop offset=".789" stop-color="#6E6E6E" stop-opacity="1"/><stop offset=".797" stop-color="#6D6D6D" stop-opacity="1"/><stop offset=".805" stop-color="#6C6C6C" stop-opacity="1"/><stop offset=".813" stop-color="#6B6B6B" stop-opacity="1"/><stop offset=".82" stop-color="#6A6A6A" stop-opacity="1"/><stop offset=".828" stop-color="#696969" stop-opacity="1"/><stop offset=".836" stop-color="#686868" stop-opacity="1"/><stop offset=".844" stop-color="#676767" stop-opacity="1"/><stop offset=".875" stop-color="#666" stop-opacity="1"/><stop offset="1" stop-color="#666" stop-opacity="1"/></linearGradient><clipPath id="6195041146"><path d="M 7 9 L 27 9 L 27 52 L 7 52 Z M 7 9" clip-rule="nonzero"/></clipPath><clipPath id="224fef5431"><path d="M -27.335938 38.160156 L 28.472656 -6.550781 L 83.074219 61.597656 L 27.269531 106.3125 Z M -27.335938 38.160156" clip-rule="nonzero"/></clipPath><clipPath id="1b47060a98"><path d="M -27.335938 38.160156 L 28.472656 -6.550781 L 83.074219 61.597656 L 27.269531 106.3125 Z M -27.335938 38.160156" clip-rule="nonzero"/></clipPath><clipPath id="1f64e9cb9d"><path d="M 19.820312 10.171875 C 24.636719 19.28125 14.886719 39.125 7.917969 51.671875 L 7.917969 51.675781 C 10.140625 51.835938 12.632812 51.605469 15.316406 51.144531 C 28.925781 25.078125 29.125 13.917969 19.195312 9.039062 C 19.425781 9.40625 19.636719 9.785156 19.820312 10.171875 Z M 19.820312 10.171875" clip-rule="evenodd"/></clipPath><linearGradient id="28885c1c49" x1="105.738" x2="640.178" y1="265.883" y2="265.883" gradientTransform="matrix(0.0632469, -0.0506747, 0.0506747, 0.0632469, -19.204751, 31.691925)" gradientUnits="userSpaceOnUse"><stop offset="0" stop-color="#CCC" stop-opacity="1"/><stop offset=".008" stop-color="#CCC" stop-opacity="1"/><stop offset=".016" stop-color="#CBCBCB" stop-opacity="1"/><stop offset=".023" stop-color="#CACACA" stop-opacity="1"/><stop offset=".031" stop-color="#C9C9C9" stop-opacity="1"/><stop offset=".039" stop-color="#C8C8C8" stop-opacity="1"/><stop offset=".047" stop-color="#C7C7C7" stop-opacity="1"/><stop offset=".055" stop-color="#C6C6C6" stop-opacity="1"/><stop offset=".063" stop-color="#C5C5C5" stop-opacity="1"/><stop offset=".07" stop-color="#C4C4C4" stop-opacity="1"/><stop offset=".078" stop-color="#C3C3C3" stop-opacity="1"/><stop offset=".086" stop-color="#C2C2C2" stop-opacity="1"/><stop offset=".094" stop-color="#C1C1C1" stop-opacity="1"/><stop offset=".102" stop-color="#C1C1C1" stop-opacity="1"/><stop offset=".109" stop-color="silver" stop-opacity="1"/><stop offset=".117" stop-color="#BFBFBF" stop-opacity="1"/><stop offset=".125" stop-color="#BEBEBE" stop-opacity="1"/><stop offset=".133" stop-color="#BDBDBD" stop-opacity="1"/><stop offset=".141" stop-color="#BCBCBC" stop-opacity="1"/><stop offset=".148" stop-color="#BBB" stop-opacity="1"/><stop offset=".156" stop-color="#BABABA" stop-opacity="1"/><stop offset=".164" stop-color="#B9B9B9" stop-opacity="1"/><stop offset=".172" stop-color="#B8B8B8" stop-opacity="1"/><stop offset=".18" stop-color="#B7B7B7" stop-opacity="1"/><stop offset=".188" stop-color="#B6B6B6" stop-opacity="1"/><stop offset=".195" stop-color="#B5B5B5" stop-opacity="1"/><stop offset=".203" stop-color="#B4B4B4" stop-opacity="1"/><stop offset=".211" stop-color="#B3B3B3" stop-opacity="1"/><stop offset=".219" stop-color="#B2B2B2" stop-opacity="1"/><stop offset=".227" stop-color="#B2B2B2" stop-opacity="1"/><stop offset=".234" stop-color="#B1B1B1" stop-opacity="1"/><stop offset=".242" stop-color="#B0B0B0" stop-opacity="1"/><stop offset=".25" stop-color="#AFAFAF" stop-opacity="1"/><stop offset=".258" stop-color="#AEAEAE" stop-opacity="1"/><stop offset=".266" stop-color="#ADADAD" stop-opacity="1"/><stop offset=".273" stop-color="#ACACAC" stop-opacity="1"/><stop offset=".281" stop-color="#ABABAB" stop-opacity="1"/><stop offset=".289" stop-color="#AAA" stop-opacity="1"/><stop offset=".297" stop-color="#A9A9A9" stop-opacity="1"/><stop offset=".305" stop-color="#A8A8A8" stop-opacity="1"/><stop offset=".313" stop-color="#A7A7A7" stop-opacity="1"/><stop offset=".32" stop-color="#A6A6A6" stop-opacity="1"/><stop offset=".328" stop-color="#A5A5A5" stop-opacity="1"/><stop offset=".336" stop-color="#A4A4A4" stop-opacity="1"/><stop offset=".344" stop-color="#A3A3A3" stop-opacity="1"/><stop offset=".352" stop-color="#A3A3A3" stop-opacity="1"/><stop offset=".359" stop-color="#A2A2A2" stop-opacity="1"/><stop offset=".367" stop-color="#A1A1A1" stop-opacity="1"/><stop offset=".375" stop-color="#A0A0A0" stop-opacity="1"/><stop offset=".383" stop-color="#9F9F9F" stop-opacity="1"/><stop offset=".391" stop-color="#9E9E9E" stop-opacity="1"/><stop offset=".398" stop-color="#9D9D9D" stop-opacity="1"/><stop offset=".406" stop-color="#9C9C9C" stop-opacity="1"/><stop offset=".414" stop-color="#9B9B9B" stop-opacity="1"/><stop offset=".422" stop-color="#9A9A9A" stop-opacity="1"/><stop offset=".43" stop-color="#999" stop-opacity="1"/><stop offset=".438" stop-color="#989898" stop-opacity="1"/><stop offset=".445" stop-color="#979797" stop-opacity="1"/><stop offset=".453" stop-color="#969696" stop-opacity="1"/><stop offset=".461" stop-color="#959595" stop-opacity="1"/><stop offset=".469" stop-color="#949494" stop-opacity="1"/><stop offset=".477" stop-color="#949494" stop-opacity="1"/><stop offset=".484" stop-color="#939393" stop-opacity="1"/><stop offset=".492" stop-color="#929292" stop-opacity="1"/><stop offset=".5" stop-color="#919191" stop-opacity="1"/><stop offset=".508" stop-color="#909090" stop-opacity="1"/><stop offset=".516" stop-color="#8F8F8F" stop-opacity="1"/><stop offset=".523" stop-color="#8E8E8E" stop-opacity="1"/><stop offset=".531" stop-color="#8D8D8D" stop-opacity="1"/><stop offset=".539" stop-color="#8C8C8C" stop-opacity="1"/><stop offset=".547" stop-color="#8B8B8B" stop-opacity="1"/><stop offset=".555" stop-color="#8A8A8A" stop-opacity="1"/><stop offset=".563" stop-color="#898989" stop-opacity="1"/><stop offset=".57" stop-color="#888" stop-opacity="1"/><stop offset=".578" stop-color="#878787" stop-opacity="1"/><stop offset=".586" stop-color="#868686" stop-opacity="1"/><stop offset=".594" stop-color="#858585" stop-opacity="1"/><stop offset=".602" stop-color="#858585" stop-opacity="1"/><stop offset=".609" stop-color="#848484" stop-opacity="1"/><stop offset=".617" stop-color="#838383" stop-opacity="1"/><stop offset=".625" stop-color="#828282" stop-opacity="1"/><stop offset=".633" stop-color="#818181" stop-opacity="1"/><stop offset=".641" stop-color="gray" stop-opacity="1"/><stop offset=".648" stop-color="#7F7F7F" stop-opacity="1"/><stop offset=".656" stop-color="#7E7E7E" stop-opacity="1"/><stop offset=".664" stop-color="#7D7D7D" stop-opacity="1"/><stop offset=".672" stop-color="#7C7C7C" stop-opacity="1"/><stop offset=".68" stop-color="#7B7B7B" stop-opacity="1"/><stop offset=".688" stop-color="#7A7A7A" stop-opacity="1"/><stop offset=".695" stop-color="#797979" stop-opacity="1"/><stop offset=".703" stop-color="#787878" stop-opacity="1"/><stop offset=".711" stop-color="#777" stop-opacity="1"/><stop offset=".719" stop-color="#767676" stop-opacity="1"/><stop offset=".727" stop-color="#767676" stop-opacity="1"/><stop offset=".734" stop-color="#757575" stop-opacity="1"/><stop offset=".742" stop-color="#747474" stop-opacity="1"/><stop offset=".75" stop-color="#737373" stop-opacity="1"/><stop offset=".758" stop-color="#727272" stop-opacity="1"/><stop offset=".766" stop-color="#717171" stop-opacity="1"/><stop offset=".773" stop-color="#707070" stop-opacity="1"/><stop offset=".781" stop-color="#6F6F6F" stop-opacity="1"/><stop offset=".789" stop-color="#6E6E6E" stop-opacity="1"/><stop offset=".797" stop-color="#6D6D6D" stop-opacity="1"/><stop offset=".805" stop-color="#6C6C6C" stop-opacity="1"/><stop offset=".813" stop-color="#6B6B6B" stop-opacity="1"/><stop offset=".82" stop-color="#6A6A6A" stop-opacity="1"/><stop offset=".828" stop-color="#696969" stop-opacity="1"/><stop offset=".836" stop-color="#686868" stop-opacity="1"/><stop offset=".844" stop-color="#676767" stop-opacity="1"/><stop offset=".875" stop-color="#666" stop-opacity="1"/><stop offset="1" stop-color="#666" stop-opacity="1"/></linearGradient><clipPath id="bbd99e66e5"><path d="M 0 46 L 70 46 L 70 62 L 0 62 Z M 0 46" clip-rule="nonzero"/></clipPath><clipPath id="c20e4357d9"><path d="M -27.335938 38.160156 L 28.472656 -6.550781 L 83.074219 61.597656 L 27.269531 106.3125 Z M -27.335938 38.160156" clip-rule="nonzero"/></clipPath><clipPath id="8db9a347e9"><path d="M -27.335938 38.160156 L 28.472656 -6.550781 L 83.074219 61.597656 L 27.269531 106.3125 Z M -27.335938 38.160156" clip-rule="nonzero"/></clipPath><clipPath id="da652d50a7"><path d="M 33.210938 56.191406 C 15.402344 61.277344 2.984375 60.75 0.828125 49.542969 C 14.082031 64.371094 55.945312 27.609375 69.464844 61.445312 C 58.59375 50.328125 45.585938 53.707031 33.210938 56.191406 Z M 33.210938 56.191406" clip-rule="evenodd"/></clipPath><clipPath id="02a9d56869"><path d="M 3 55 L 72 55 L 72 71 L 3 71 Z M 3 55" clip-rule="nonzero"/></clipPath><clipPath id="19aa63c305"><path d="M -27.335938 38.160156 L 28.472656 -6.550781 L 83.074219 61.597656 L 27.269531 106.3125 Z M -27.335938 38.160156" clip-rule="nonzero"/></clipPath><clipPath id="08787d18ac"><path d="M -27.335938 38.160156 L 28.472656 -6.550781 L 83.074219 61.597656 L 27.269531 106.3125 Z M -27.335938 38.160156" clip-rule="nonzero"/></clipPath><clipPath id="678484b673"><path d="M 3.015625 56.585938 C 18.621094 72.121094 60.550781 36.410156 71.96875 70.554688 C 50.652344 48.753906 7.945312 82.195312 3.015625 56.585938 Z M 3.015625 56.585938" clip-rule="evenodd"/></clipPath></defs><g fill="#373643" fill-opacity="1"><g><g><path d="M 38.625 0 C 38.09375 0.101562 37.425781 0.1875 36.625 0.25 C 35.832031 0.320312 35.148438 0.359375 34.578125 0.359375 C 33.234375 0.359375 32.15625 0.253906 31.34375 0.046875 C 30.539062 -0.148438 29.851562 -0.523438 29.28125 -1.078125 C 28.707031 -1.640625 28.21875 -2.460938 27.8125 -3.546875 L 26.140625 -7.984375 L 10.625 -7.984375 C 9.738281 -5.359375 9.03125 -2.695312 8.5 0 C 7.957031 0.101562 7.289062 0.1875 6.5 0.25 C 5.707031 0.320312 5.007812 0.359375 4.40625 0.359375 C 1.664062 0.359375 0.296875 -0.566406 0.296875 -2.421875 C 0.296875 -3.066406 0.457031 -3.976562 0.78125 -5.15625 C 1.101562 -6.332031 1.550781 -7.628906 2.125 -9.046875 C 3.507812 -12.722656 5.394531 -16.894531 7.78125 -21.5625 C 10.175781 -26.226562 12.535156 -30.367188 14.859375 -33.984375 L 13.90625 -36.859375 C 14.40625 -36.960938 15.023438 -37.046875 15.765625 -37.109375 C 16.515625 -37.179688 17.191406 -37.21875 17.796875 -37.21875 C 19.347656 -37.21875 20.546875 -37.039062 21.390625 -36.6875 C 22.234375 -36.332031 22.941406 -35.710938 23.515625 -34.828125 C 24.085938 -33.953125 24.773438 -32.570312 25.578125 -30.6875 Z M 23.46875 -15.015625 L 18.8125 -27.25 C 16.71875 -23.238281 14.847656 -19.160156 13.203125 -15.015625 Z M 23.46875 -15.015625" transform="translate(23.580249, 44.603245)"/></g></g></g><g fill="#373643" fill-opacity="1"><g><g><path d="M 32.921875 -5.96875 C 32.984375 -5.625 33.039062 -5.300781 33.09375 -5 C 33.144531 -4.695312 33.171875 -4.378906 33.171875 -4.046875 C 33.171875 -2.359375 32.695312 -1.128906 31.75 -0.359375 C 31.25 0.046875 30.632812 0.316406 29.90625 0.453125 C 29.1875 0.585938 28.367188 0.65625 27.453125 0.65625 C 25.972656 0.65625 24.742188 0.429688 23.765625 -0.015625 C 22.785156 -0.472656 22.0625 -1.257812 21.59375 -2.375 C 20.582031 -1.332031 19.394531 -0.539062 18.03125 0 C 16.664062 0.539062 15.1875 0.8125 13.59375 0.8125 C 11.4375 0.8125 9.457031 0.253906 7.65625 -0.859375 C 5.851562 -1.972656 4.421875 -3.597656 3.359375 -5.734375 C 2.296875 -7.878906 1.765625 -10.4375 1.765625 -13.40625 C 1.765625 -16.40625 2.320312 -18.984375 3.4375 -21.140625 C 4.550781 -23.296875 6.023438 -24.925781 7.859375 -26.03125 C 9.703125 -27.144531 11.71875 -27.703125 13.90625 -27.703125 C 15.289062 -27.703125 16.613281 -27.457031 17.875 -26.96875 C 19.132812 -26.476562 20.253906 -25.765625 21.234375 -24.828125 C 21.566406 -25.734375 22.140625 -26.390625 22.953125 -26.796875 C 23.765625 -27.203125 24.910156 -27.40625 26.390625 -27.40625 C 26.960938 -27.40625 27.566406 -27.367188 28.203125 -27.296875 C 28.847656 -27.234375 29.390625 -27.164062 29.828125 -27.09375 L 29.828125 -8.09375 C 29.828125 -7.25 29.945312 -6.648438 30.1875 -6.296875 C 30.425781 -5.941406 30.878906 -5.765625 31.546875 -5.765625 C 32.085938 -5.765625 32.546875 -5.832031 32.921875 -5.96875 Z M 10.765625 -13.453125 C 10.765625 -12.003906 11.007812 -10.75 11.5 -9.6875 C 11.988281 -8.625 12.671875 -7.820312 13.546875 -7.28125 C 14.421875 -6.738281 15.398438 -6.46875 16.484375 -6.46875 C 17.328125 -6.46875 18.117188 -6.601562 18.859375 -6.875 C 19.597656 -7.144531 20.269531 -7.535156 20.875 -8.046875 L 20.875 -18.859375 C 19.59375 -19.898438 18.113281 -20.421875 16.4375 -20.421875 C 15.320312 -20.421875 14.34375 -20.148438 13.5 -19.609375 C 12.65625 -19.078125 11.988281 -18.28125 11.5 -17.21875 C 11.007812 -16.15625 10.765625 -14.898438 10.765625 -13.453125 Z M 10.765625 -13.453125" transform="translate(60.442234, 44.603245)"/></g></g></g><g fill="#373643" fill-opacity="1"><g><g><path d="M 18.15625 -30.796875 C 16.9375 -30.796875 15.957031 -30.441406 15.21875 -29.734375 C 14.476562 -29.023438 14.109375 -27.894531 14.109375 -26.34375 L 14.109375 -25.84375 L 21.640625 -25.84375 C 21.703125 -25.570312 21.757812 -25.21875 21.8125 -24.78125 C 21.863281 -24.34375 21.890625 -23.921875 21.890625 -23.515625 C 21.890625 -22.296875 21.796875 -21.375 21.609375 -20.75 C 21.429688 -20.132812 21.097656 -19.707031 20.609375 -19.46875 C 20.117188 -19.226562 19.398438 -19.109375 18.453125 -19.109375 L 14.109375 -19.109375 L 14.109375 0.203125 C 13.671875 0.265625 13.140625 0.320312 12.515625 0.375 C 11.890625 0.425781 11.34375 0.453125 10.875 0.453125 C 9.519531 0.453125 8.460938 0.316406 7.703125 0.046875 C 6.953125 -0.222656 6.40625 -0.691406 6.0625 -1.359375 C 5.726562 -2.035156 5.5625 -3.03125 5.5625 -4.34375 L 5.5625 -19.109375 L 0.8125 -19.109375 C 0.738281 -19.410156 0.6875 -19.78125 0.65625 -20.21875 C 0.625 -20.65625 0.609375 -21.078125 0.609375 -21.484375 C 0.609375 -22.703125 0.695312 -23.613281 0.875 -24.21875 C 1.0625 -24.820312 1.398438 -25.242188 1.890625 -25.484375 C 2.378906 -25.722656 3.097656 -25.84375 4.046875 -25.84375 L 5.5625 -25.84375 C 5.59375 -29.78125 6.601562 -32.734375 8.59375 -34.703125 C 10.582031 -36.679688 13.3125 -37.671875 16.78125 -37.671875 C 17.894531 -37.671875 18.90625 -37.578125 19.8125 -37.390625 C 20.726562 -37.203125 21.503906 -36.925781 22.140625 -36.5625 C 23.191406 -36.019531 23.71875 -35.140625 23.71875 -33.921875 C 23.71875 -33.253906 23.582031 -32.554688 23.3125 -31.828125 C 23.039062 -31.097656 22.632812 -30.414062 22.09375 -29.78125 C 21.59375 -30.082031 20.992188 -30.328125 20.296875 -30.515625 C 19.609375 -30.703125 18.894531 -30.796875 18.15625 -30.796875 Z M 18.15625 -30.796875" transform="translate(92.095985, 44.603245)"/></g></g></g><g fill="#373643" fill-opacity="1"><g><g><path d="M 7.4375 -30.796875 C 5.78125 -30.796875 4.515625 -31.101562 3.640625 -31.71875 C 2.765625 -32.34375 2.328125 -33.28125 2.328125 -34.53125 C 2.328125 -35.78125 2.765625 -36.71875 3.640625 -37.34375 C 4.515625 -37.96875 5.78125 -38.28125 7.4375 -38.28125 C 9.050781 -38.28125 10.304688 -37.96875 11.203125 -37.34375 C 12.097656 -36.71875 12.546875 -35.78125 12.546875 -34.53125 C 12.546875 -33.28125 12.097656 -32.34375 11.203125 -31.71875 C 10.304688 -31.101562 9.050781 -30.796875 7.4375 -30.796875 Z M 9.5 0.65625 C 8.050781 0.65625 6.847656 0.441406 5.890625 0.015625 C 4.929688 -0.398438 4.195312 -1.128906 3.6875 -2.171875 C 3.1875 -3.210938 2.9375 -4.644531 2.9375 -6.46875 L 2.9375 -27.09375 C 3.375 -27.164062 3.898438 -27.234375 4.515625 -27.296875 C 5.140625 -27.367188 5.738281 -27.40625 6.3125 -27.40625 C 7.726562 -27.40625 8.820312 -27.269531 9.59375 -27 C 10.375 -26.726562 10.941406 -26.242188 11.296875 -25.546875 C 11.648438 -24.859375 11.828125 -23.875 11.828125 -22.59375 L 11.828125 -8.09375 C 11.828125 -7.25 11.953125 -6.648438 12.203125 -6.296875 C 12.460938 -5.941406 12.925781 -5.765625 13.59375 -5.765625 C 14.164062 -5.765625 14.609375 -5.832031 14.921875 -5.96875 C 15.015625 -5.625 15.078125 -5.300781 15.109375 -5 C 15.148438 -4.695312 15.171875 -4.378906 15.171875 -4.046875 C 15.171875 -2.359375 14.695312 -1.128906 13.75 -0.359375 C 13.25 0.046875 12.644531 0.316406 11.9375 0.453125 C 11.226562 0.585938 10.414062 0.65625 9.5 0.65625 Z M 9.5 0.65625" transform="translate(113.737806, 44.603245)"/></g></g></g><g fill="#373643" fill-opacity="1"><g><g><path d="M 23.515625 -27.40625 C 24.929688 -27.40625 26.015625 -27.269531 26.765625 -27 C 27.523438 -26.726562 28.082031 -26.253906 28.4375 -25.578125 C 28.789062 -24.910156 28.96875 -23.914062 28.96875 -22.59375 L 28.96875 -4.953125 C 28.96875 0.0351562 27.703125 3.707031 25.171875 6.0625 C 22.648438 8.425781 18.859375 9.609375 13.796875 9.609375 C 11.984375 9.609375 10.328125 9.4375 8.828125 9.09375 C 7.328125 8.757812 6.070312 8.34375 5.0625 7.84375 C 4.28125 7.46875 3.6875 7.035156 3.28125 6.546875 C 2.882812 6.054688 2.6875 5.472656 2.6875 4.796875 C 2.6875 3.585938 3.390625 1.988281 4.796875 0 C 5.878906 0.738281 7.1875 1.382812 8.71875 1.9375 C 10.25 2.5 11.8125 2.78125 13.40625 2.78125 C 15.488281 2.78125 17.066406 2.289062 18.140625 1.3125 C 19.222656 0.332031 19.847656 -1.21875 20.015625 -3.34375 C 19.078125 -2.664062 17.992188 -2.148438 16.765625 -1.796875 C 15.535156 -1.441406 14.191406 -1.265625 12.734375 -1.265625 C 9.609375 -1.265625 7.148438 -2.179688 5.359375 -4.015625 C 3.578125 -5.859375 2.6875 -8.816406 2.6875 -12.890625 L 2.6875 -27.15625 C 3.125 -27.21875 3.660156 -27.273438 4.296875 -27.328125 C 4.941406 -27.378906 5.53125 -27.40625 6.0625 -27.40625 C 7.476562 -27.40625 8.570312 -27.269531 9.34375 -27 C 10.125 -26.726562 10.691406 -26.253906 11.046875 -25.578125 C 11.398438 -24.910156 11.578125 -23.914062 11.578125 -22.59375 L 11.578125 -13.75 C 11.578125 -10.3125 12.992188 -8.59375 15.828125 -8.59375 C 16.640625 -8.59375 17.40625 -8.742188 18.125 -9.046875 C 18.851562 -9.347656 19.503906 -9.753906 20.078125 -10.265625 L 20.078125 -27.15625 C 20.515625 -27.21875 21.050781 -27.273438 21.6875 -27.328125 C 22.332031 -27.378906 22.941406 -27.40625 23.515625 -27.40625 Z M 23.515625 -27.40625" transform="translate(127.390305, 44.603245)"/></g></g></g><g fill="#373643" fill-opacity="1"><g><g><path d="M 32.921875 -5.96875 C 32.984375 -5.625 33.039062 -5.300781 33.09375 -5 C 33.144531 -4.695312 33.171875 -4.378906 33.171875 -4.046875 C 33.171875 -2.359375 32.695312 -1.128906 31.75 -0.359375 C 31.25 0.046875 30.632812 0.316406 29.90625 0.453125 C 29.1875 0.585938 28.367188 0.65625 27.453125 0.65625 C 25.972656 0.65625 24.742188 0.429688 23.765625 -0.015625 C 22.785156 -0.472656 22.0625 -1.257812 21.59375 -2.375 C 20.582031 -1.332031 19.394531 -0.539062 18.03125 0 C 16.664062 0.539062 15.1875 0.8125 13.59375 0.8125 C 11.4375 0.8125 9.457031 0.253906 7.65625 -0.859375 C 5.851562 -1.972656 4.421875 -3.597656 3.359375 -5.734375 C 2.296875 -7.878906 1.765625 -10.4375 1.765625 -13.40625 C 1.765625 -16.40625 2.320312 -18.984375 3.4375 -21.140625 C 4.550781 -23.296875 6.023438 -24.925781 7.859375 -26.03125 C 9.703125 -27.144531 11.71875 -27.703125 13.90625 -27.703125 C 15.289062 -27.703125 16.613281 -27.457031 17.875 -26.96875 C 19.132812 -26.476562 20.253906 -25.765625 21.234375 -24.828125 C 21.566406 -25.734375 22.140625 -26.390625 22.953125 -26.796875 C 23.765625 -27.203125 24.910156 -27.40625 26.390625 -27.40625 C 26.960938 -27.40625 27.566406 -27.367188 28.203125 -27.296875 C 28.847656 -27.234375 29.390625 -27.164062 29.828125 -27.09375 L 29.828125 -8.09375 C 29.828125 -7.25 29.945312 -6.648438 30.1875 -6.296875 C 30.425781 -5.941406 30.878906 -5.765625 31.546875 -5.765625 C 32.085938 -5.765625 32.546875 -5.832031 32.921875 -5.96875 Z M 10.765625 -13.453125 C 10.765625 -12.003906 11.007812 -10.75 11.5 -9.6875 C 11.988281 -8.625 12.671875 -7.820312 13.546875 -7.28125 C 14.421875 -6.738281 15.398438 -6.46875 16.484375 -6.46875 C 17.328125 -6.46875 18.117188 -6.601562 18.859375 -6.875 C 19.597656 -7.144531 20.269531 -7.535156 20.875 -8.046875 L 20.875 -18.859375 C 19.59375 -19.898438 18.113281 -20.421875 16.4375 -20.421875 C 15.320312 -20.421875 14.34375 -20.148438 13.5 -19.609375 C 12.65625 -19.078125 11.988281 -18.28125 11.5 -17.21875 C 11.007812 -16.15625 10.765625 -14.898438 10.765625 -13.453125 Z M 10.765625 -13.453125" transform="translate(157.274276, 44.603245)"/></g></g></g><g fill="#373643" fill-opacity="1"><g><g><path d="M 32.359375 -5.96875 C 32.460938 -5.625 32.53125 -5.300781 32.5625 -5 C 32.59375 -4.695312 32.609375 -4.378906 32.609375 -4.046875 C 32.609375 -2.328125 32.140625 -1.097656 31.203125 -0.359375 C 30.691406 0.046875 30.082031 0.316406 29.375 0.453125 C 28.664062 0.585938 27.859375 0.65625 26.953125 0.65625 C 25.503906 0.65625 24.296875 0.441406 23.328125 0.015625 C 22.367188 -0.398438 21.632812 -1.128906 21.125 -2.171875 C 20.625 -3.210938 20.375 -4.644531 20.375 -6.46875 L 20.375 -15.375 C 20.375 -17.257812 19.984375 -18.570312 19.203125 -19.3125 C 18.429688 -20.050781 17.390625 -20.421875 16.078125 -20.421875 C 15.335938 -20.421875 14.585938 -20.273438 13.828125 -19.984375 C 13.066406 -19.703125 12.398438 -19.34375 11.828125 -18.90625 L 11.828125 0.203125 C 11.421875 0.265625 10.90625 0.320312 10.28125 0.375 C 9.664062 0.425781 9.050781 0.453125 8.4375 0.453125 C 7.019531 0.453125 5.925781 0.316406 5.15625 0.046875 C 4.382812 -0.222656 3.820312 -0.703125 3.46875 -1.390625 C 3.113281 -2.078125 2.9375 -3.0625 2.9375 -4.34375 L 2.9375 -37.0625 C 3.375 -37.125 3.898438 -37.179688 4.515625 -37.234375 C 5.140625 -37.285156 5.738281 -37.3125 6.3125 -37.3125 C 7.726562 -37.3125 8.820312 -37.175781 9.59375 -36.90625 C 10.375 -36.632812 10.941406 -36.160156 11.296875 -35.484375 C 11.648438 -34.816406 11.828125 -33.828125 11.828125 -32.515625 L 11.828125 -24.875 C 12.742188 -25.75 13.859375 -26.4375 15.171875 -26.9375 C 16.484375 -27.445312 17.878906 -27.703125 19.359375 -27.703125 C 25.972656 -27.703125 29.28125 -23.8125 29.28125 -16.03125 L 29.28125 -8.09375 C 29.28125 -7.25 29.40625 -6.648438 29.65625 -6.296875 C 29.90625 -5.941406 30.367188 -5.765625 31.046875 -5.765625 C 31.617188 -5.765625 32.054688 -5.832031 32.359375 -5.96875 Z M 32.359375 -5.96875" transform="translate(188.92803, 44.603245)"/></g></g></g><g clip-path="url(#c7b02ced06)"><g clip-path="url(#5f3805b2c4)"><g clip-path="url(#47483ebf46)"><g clip-path="url(#98fc031e55)"><path fill="url(#612e655121)" fill-rule="nonzero" d="M -21.046875 23.566406 L 9.945312 62.246094 L 45.820312 33.503906 L 14.828125 -5.179688 Z M -21.046875 23.566406"/></g></g></g></g><g clip-path="url(#6195041146)"><g clip-path="url(#224fef5431)"><g clip-path="url(#1b47060a98)"><g clip-path="url(#1f64e9cb9d)"><path fill="url(#28885c1c49)" fill-rule="nonzero" d="M -12.96875 25.769531 L 16.207031 62.1875 L 50.011719 35.105469 L 20.832031 -1.3125 Z M -12.96875 25.769531"/></g></g></g></g><g clip-path="url(#bbd99e66e5)"><g clip-path="url(#c20e4357d9)"><g clip-path="url(#8db9a347e9)"><g clip-path="url(#da652d50a7)"><path fill="#ff8e2b" fill-opacity="1" fill-rule="nonzero" d="M -17.109375 41.980469 L 27.664062 97.863281 L 87.402344 49.996094 L 42.628906 -5.882812 Z M -17.109375 41.980469"/></g></g></g></g><g clip-path="url(#02a9d56869)"><g clip-path="url(#19aa63c305)"><g clip-path="url(#08787d18ac)"><g clip-path="url(#678484b673)"><path fill="#ff8e2b" fill-opacity="1" fill-rule="nonzero" d="M -15.804688 51.488281 L 29.972656 108.625 L 90.789062 59.898438 L 45.011719 2.761719 Z M -15.804688 51.488281"/></g></g></g></g></svg>